<mxfile host="app.diagrams.net" modified="2020-11-17T13:13:51.985Z" agent="5.0 (Macintosh; Intel Mac OS X 10_15_6) AppleWebKit/537.36 (KHTML, like Gecko) Chrome/86.0.4240.198 Safari/537.36" etag="vHYtTP9XHsXNW5hmN9ZD" version="13.9.2" type="github">
  <diagram id="-bUbj239cM9kmHIun1qE" name="Page-1">
    <mxGraphModel dx="1151" dy="1163" grid="1" gridSize="10" guides="1" tooltips="1" connect="1" arrows="1" fold="1" page="1" pageScale="1" pageWidth="2500" pageHeight="2600" math="0" shadow="0">
      <root>
        <mxCell id="0" />
        <mxCell id="1" parent="0" />
        <mxCell id="OUhTBIhkD1Vwn9y0nwfR-17" value="&lt;span&gt;&lt;b&gt;&lt;br&gt;&lt;br&gt;&lt;br&gt;&lt;br&gt;&lt;br&gt;&lt;br&gt;&lt;br&gt;&lt;br&gt;&lt;br&gt;&lt;br&gt;SITE 2: Green&lt;/b&gt;&lt;/span&gt;" style="whiteSpace=wrap;html=1;aspect=fixed;fillColor=#d5e8d4;strokeColor=#82b366;" parent="1" vertex="1">
          <mxGeometry x="550" y="680" width="200" height="200" as="geometry" />
        </mxCell>
        <mxCell id="OUhTBIhkD1Vwn9y0nwfR-15" value="VALERIA Manager&lt;br&gt;&lt;br&gt;&lt;b&gt;Message queue implemented&lt;br&gt;as Flask session &lt;/b&gt;(for now)&lt;br&gt;&lt;br&gt;&lt;br&gt;&lt;br&gt;&lt;br&gt;&lt;br&gt;&lt;br&gt;&lt;br&gt;&lt;br&gt;&lt;br&gt;&lt;br&gt;" style="whiteSpace=wrap;html=1;aspect=fixed;fillColor=#e1d5e7;strokeColor=#9673a6;" parent="1" vertex="1">
          <mxGeometry x="290" y="140" width="260" height="260" as="geometry" />
        </mxCell>
        <mxCell id="OUhTBIhkD1Vwn9y0nwfR-14" value="&lt;b&gt;&lt;br&gt;&lt;br&gt;&lt;br&gt;&lt;br&gt;&lt;br&gt;&lt;br&gt;&lt;br&gt;&lt;br&gt;&lt;br&gt;&lt;br&gt;SITE 1: Green&lt;/b&gt;" style="whiteSpace=wrap;html=1;aspect=fixed;fillColor=#d5e8d4;strokeColor=#82b366;" parent="1" vertex="1">
          <mxGeometry x="120" y="680" width="200" height="200" as="geometry" />
        </mxCell>
        <mxCell id="OUhTBIhkD1Vwn9y0nwfR-1" value="Flask" style="rounded=1;whiteSpace=wrap;html=1;" parent="1" vertex="1">
          <mxGeometry x="360" y="310" width="120" height="60" as="geometry" />
        </mxCell>
        <mxCell id="OUhTBIhkD1Vwn9y0nwfR-52" style="edgeStyle=orthogonalEdgeStyle;rounded=0;orthogonalLoop=1;jettySize=auto;html=1;exitX=0;exitY=0.5;exitDx=0;exitDy=0;entryX=1;entryY=0.5;entryDx=0;entryDy=0;fontFamily=Courier New;" parent="1" source="OUhTBIhkD1Vwn9y0nwfR-3" target="OUhTBIhkD1Vwn9y0nwfR-48" edge="1">
          <mxGeometry relative="1" as="geometry" />
        </mxCell>
        <mxCell id="OUhTBIhkD1Vwn9y0nwfR-3" value="SocketIO" style="rounded=1;whiteSpace=wrap;html=1;" parent="1" vertex="1">
          <mxGeometry x="340" y="260" width="120" height="60" as="geometry" />
        </mxCell>
        <mxCell id="OUhTBIhkD1Vwn9y0nwfR-6" value="Flask" style="rounded=1;whiteSpace=wrap;html=1;" parent="1" vertex="1">
          <mxGeometry x="160" y="730" width="120" height="60" as="geometry" />
        </mxCell>
        <mxCell id="OUhTBIhkD1Vwn9y0nwfR-5" value="SocketIO" style="rounded=1;whiteSpace=wrap;html=1;" parent="1" vertex="1">
          <mxGeometry x="170" y="770" width="120" height="60" as="geometry" />
        </mxCell>
        <mxCell id="OUhTBIhkD1Vwn9y0nwfR-7" value="Flask" style="rounded=1;whiteSpace=wrap;html=1;" parent="1" vertex="1">
          <mxGeometry x="590" y="730" width="120" height="60" as="geometry" />
        </mxCell>
        <mxCell id="OUhTBIhkD1Vwn9y0nwfR-8" value="SocketIO" style="rounded=1;whiteSpace=wrap;html=1;" parent="1" vertex="1">
          <mxGeometry x="600" y="770" width="120" height="60" as="geometry" />
        </mxCell>
        <mxCell id="OUhTBIhkD1Vwn9y0nwfR-10" style="edgeStyle=orthogonalEdgeStyle;rounded=0;orthogonalLoop=1;jettySize=auto;html=1;exitX=0;exitY=0.5;exitDx=0;exitDy=0;" parent="1" target="OUhTBIhkD1Vwn9y0nwfR-6" edge="1">
          <mxGeometry relative="1" as="geometry">
            <mxPoint x="360" y="540" as="sourcePoint" />
          </mxGeometry>
        </mxCell>
        <mxCell id="OUhTBIhkD1Vwn9y0nwfR-36" value="{ type: &#39;message&#39;,&amp;nbsp;&lt;br&gt;description: &#39;...&#39;,&lt;br&gt;&lt;b&gt;destination: &#39;learning&#39;,&lt;/b&gt;&lt;br&gt;data: { action: &quot;train_model&quot; } }" style="edgeLabel;html=1;align=center;verticalAlign=middle;resizable=0;points=[];fontFamily=Courier New;" parent="OUhTBIhkD1Vwn9y0nwfR-10" vertex="1" connectable="0">
          <mxGeometry x="-0.1636" y="61" relative="1" as="geometry">
            <mxPoint as="offset" />
          </mxGeometry>
        </mxCell>
        <mxCell id="OUhTBIhkD1Vwn9y0nwfR-12" style="edgeStyle=orthogonalEdgeStyle;rounded=0;orthogonalLoop=1;jettySize=auto;html=1;exitX=1;exitY=0.5;exitDx=0;exitDy=0;" parent="1" source="NaJi3UD-vS3J3Lx25AtY-4" target="OUhTBIhkD1Vwn9y0nwfR-7" edge="1">
          <mxGeometry relative="1" as="geometry">
            <mxPoint x="480" y="540" as="sourcePoint" />
          </mxGeometry>
        </mxCell>
        <mxCell id="OUhTBIhkD1Vwn9y0nwfR-44" value="Text" style="edgeLabel;html=1;align=center;verticalAlign=middle;resizable=0;points=[];fontFamily=Courier New;" parent="OUhTBIhkD1Vwn9y0nwfR-12" vertex="1" connectable="0">
          <mxGeometry x="-0.0611" y="-64" relative="1" as="geometry">
            <mxPoint as="offset" />
          </mxGeometry>
        </mxCell>
        <mxCell id="OUhTBIhkD1Vwn9y0nwfR-28" style="edgeStyle=orthogonalEdgeStyle;rounded=0;orthogonalLoop=1;jettySize=auto;html=1;exitX=0.5;exitY=0;exitDx=0;exitDy=0;" parent="1" target="OUhTBIhkD1Vwn9y0nwfR-1" edge="1">
          <mxGeometry relative="1" as="geometry">
            <mxPoint x="420" y="440" as="sourcePoint" />
          </mxGeometry>
        </mxCell>
        <mxCell id="OUhTBIhkD1Vwn9y0nwfR-39" style="edgeStyle=orthogonalEdgeStyle;rounded=0;orthogonalLoop=1;jettySize=auto;html=1;exitX=0.75;exitY=1;exitDx=0;exitDy=0;entryX=0.75;entryY=0;entryDx=0;entryDy=0;fontFamily=Courier New;" parent="1" source="NaJi3UD-vS3J3Lx25AtY-1" target="OUhTBIhkD1Vwn9y0nwfR-30" edge="1">
          <mxGeometry relative="1" as="geometry">
            <mxPoint x="420" y="570" as="sourcePoint" />
            <Array as="points">
              <mxPoint x="360" y="560" />
            </Array>
          </mxGeometry>
        </mxCell>
        <mxCell id="OUhTBIhkD1Vwn9y0nwfR-40" style="edgeStyle=orthogonalEdgeStyle;rounded=0;orthogonalLoop=1;jettySize=auto;html=1;entryX=0.25;entryY=0;entryDx=0;entryDy=0;fontFamily=Courier New;exitX=0.25;exitY=1;exitDx=0;exitDy=0;" parent="1" source="NaJi3UD-vS3J3Lx25AtY-4" target="OUhTBIhkD1Vwn9y0nwfR-33" edge="1">
          <mxGeometry relative="1" as="geometry">
            <mxPoint x="420" y="610" as="sourcePoint" />
            <Array as="points">
              <mxPoint x="480" y="560" />
            </Array>
          </mxGeometry>
        </mxCell>
        <mxCell id="OUhTBIhkD1Vwn9y0nwfR-41" value="&lt;span style=&quot;color: rgba(0 , 0 , 0 , 0) ; font-family: monospace ; font-size: 0px ; background-color: rgb(248 , 249 , 250)&quot;&gt;%3CmxGraphModel%3E%3Croot%3E%3CmxCell%20id%3D%220%22%2F%3E%3CmxCell%20id%3D%221%22%20parent%3D%220%22%2F%3E%3CmxCell%20id%3D%222%22%20value%3D%22%7B%20type%3A%20&#39;message&#39;%2C%26amp%3Bnbsp%3B%26lt%3Bbr%26gt%3Bdescription%3A%20&#39;...&#39;%2C%26lt%3Bbr%26gt%3Bdestination%3A%20&#39;learning&#39;%2C%26lt%3Bbr%26gt%3Bdata%3A%20%7B%20action%3A%20%26quot%3Btrain_model%26quot%3B%20%7D%20%7D%22%20style%3D%22edgeLabel%3Bhtml%3D1%3Balign%3Dcenter%3BverticalAlign%3Dmiddle%3Bresizable%3D0%3Bpoints%3D%5B%5D%3BfontFamily%3DCourier%20New%3B%22%20vertex%3D%221%22%20connectable%3D%220%22%20parent%3D%221%22%3E%3CmxGeometry%20x%3D%22222%22%20y%3D%22521%22%20as%3D%22geometry%22%2F%3E%3C%2FmxCell%3E%3C%2Froot%3E%3C%2FmxGraphModel%3E&lt;/span&gt;" style="edgeLabel;html=1;align=center;verticalAlign=middle;resizable=0;points=[];fontFamily=Courier New;" parent="OUhTBIhkD1Vwn9y0nwfR-40" vertex="1" connectable="0">
          <mxGeometry x="-0.6457" y="-2" relative="1" as="geometry">
            <mxPoint as="offset" />
          </mxGeometry>
        </mxCell>
        <mxCell id="NaJi3UD-vS3J3Lx25AtY-3" style="edgeStyle=orthogonalEdgeStyle;rounded=0;orthogonalLoop=1;jettySize=auto;html=1;exitX=0;exitY=0.5;exitDx=0;exitDy=0;entryX=0.25;entryY=0;entryDx=0;entryDy=0;" edge="1" parent="1" source="OUhTBIhkD1Vwn9y0nwfR-9" target="NaJi3UD-vS3J3Lx25AtY-1">
          <mxGeometry relative="1" as="geometry" />
        </mxCell>
        <mxCell id="NaJi3UD-vS3J3Lx25AtY-5" style="edgeStyle=orthogonalEdgeStyle;rounded=0;orthogonalLoop=1;jettySize=auto;html=1;exitX=1;exitY=0.5;exitDx=0;exitDy=0;entryX=0.5;entryY=0;entryDx=0;entryDy=0;" edge="1" parent="1" source="OUhTBIhkD1Vwn9y0nwfR-9" target="NaJi3UD-vS3J3Lx25AtY-4">
          <mxGeometry relative="1" as="geometry" />
        </mxCell>
        <mxCell id="OUhTBIhkD1Vwn9y0nwfR-9" value="Dashboard JS&lt;br&gt;(SSR or client-side)" style="rounded=1;whiteSpace=wrap;html=1;" parent="1" vertex="1">
          <mxGeometry x="360" y="430" width="120" height="60" as="geometry" />
        </mxCell>
        <mxCell id="OUhTBIhkD1Vwn9y0nwfR-19" value="Learning service" style="text;html=1;strokeColor=none;fillColor=none;align=center;verticalAlign=middle;whiteSpace=wrap;rounded=0;" parent="1" vertex="1">
          <mxGeometry x="130" y="700" width="90" height="20" as="geometry" />
        </mxCell>
        <mxCell id="OUhTBIhkD1Vwn9y0nwfR-20" value="Learning service" style="text;html=1;strokeColor=none;fillColor=none;align=center;verticalAlign=middle;whiteSpace=wrap;rounded=0;" parent="1" vertex="1">
          <mxGeometry x="560" y="700" width="90" height="20" as="geometry" />
        </mxCell>
        <mxCell id="OUhTBIhkD1Vwn9y0nwfR-30" value="&lt;b&gt;&lt;br&gt;&lt;br&gt;&lt;br&gt;&lt;br&gt;&lt;br&gt;&lt;br&gt;&lt;br&gt;&lt;br&gt;&lt;br&gt;&lt;br&gt;SITE 1: Green&lt;/b&gt;" style="whiteSpace=wrap;html=1;aspect=fixed;fillColor=#d5e8d4;strokeColor=#82b366;" parent="1" vertex="1">
          <mxGeometry x="210" y="860" width="200" height="200" as="geometry" />
        </mxCell>
        <mxCell id="OUhTBIhkD1Vwn9y0nwfR-31" value="Flask or Express?" style="rounded=1;whiteSpace=wrap;html=1;" parent="1" vertex="1">
          <mxGeometry x="250" y="920" width="120" height="60" as="geometry" />
        </mxCell>
        <mxCell id="OUhTBIhkD1Vwn9y0nwfR-32" value="Stats service" style="text;html=1;strokeColor=none;fillColor=none;align=center;verticalAlign=middle;whiteSpace=wrap;rounded=0;" parent="1" vertex="1">
          <mxGeometry x="220" y="880" width="90" height="20" as="geometry" />
        </mxCell>
        <mxCell id="OUhTBIhkD1Vwn9y0nwfR-33" value="&lt;b&gt;&lt;br&gt;&lt;br&gt;&lt;br&gt;&lt;br&gt;&lt;br&gt;&lt;br&gt;&lt;br&gt;&lt;br&gt;&lt;br&gt;&lt;br&gt;SITE 2: Green&lt;/b&gt;" style="whiteSpace=wrap;html=1;aspect=fixed;fillColor=#d5e8d4;strokeColor=#82b366;" parent="1" vertex="1">
          <mxGeometry x="430" y="860" width="200" height="200" as="geometry" />
        </mxCell>
        <mxCell id="OUhTBIhkD1Vwn9y0nwfR-34" value="Flask or Express?" style="rounded=1;whiteSpace=wrap;html=1;" parent="1" vertex="1">
          <mxGeometry x="470" y="920" width="120" height="60" as="geometry" />
        </mxCell>
        <mxCell id="OUhTBIhkD1Vwn9y0nwfR-35" value="Stats service" style="text;html=1;strokeColor=none;fillColor=none;align=center;verticalAlign=middle;whiteSpace=wrap;rounded=0;" parent="1" vertex="1">
          <mxGeometry x="440" y="880" width="90" height="20" as="geometry" />
        </mxCell>
        <mxCell id="OUhTBIhkD1Vwn9y0nwfR-42" value="{ type: &#39;message&#39;,&amp;nbsp;&lt;br&gt;description: &#39;...&#39;,&lt;br&gt;&lt;b&gt;destination: &#39;stats&#39;,&lt;/b&gt;&lt;br&gt;data: { action: &quot;fetch_stats&quot; } }" style="edgeLabel;html=1;align=center;verticalAlign=middle;resizable=0;points=[];fontFamily=Courier New;" parent="1" vertex="1" connectable="0">
          <mxGeometry x="430" y="660" as="geometry" />
        </mxCell>
        <mxCell id="OUhTBIhkD1Vwn9y0nwfR-45" value="{ type: &#39;message&#39;,&amp;nbsp;&lt;br&gt;description: &#39;...&#39;,&lt;br&gt;&lt;b&gt;destination: &#39;learning&#39;,&lt;/b&gt;&lt;br&gt;data: { action: &quot;train_model&quot;, &lt;br&gt;weights: &quot;model_weights&quot; } } }" style="edgeLabel;html=1;align=center;verticalAlign=middle;resizable=0;points=[];fontFamily=Courier New;" parent="1" vertex="1" connectable="0">
          <mxGeometry x="650" y="600" as="geometry" />
        </mxCell>
        <mxCell id="OUhTBIhkD1Vwn9y0nwfR-46" value="[{ jobId, jobStatus } }]" style="edgeLabel;html=1;align=center;verticalAlign=middle;resizable=0;points=[];fontFamily=Courier New;" parent="1" vertex="1" connectable="0">
          <mxGeometry x="485" y="210" as="geometry">
            <mxPoint x="-76" y="29" as="offset" />
          </mxGeometry>
        </mxCell>
        <mxCell id="OUhTBIhkD1Vwn9y0nwfR-48" value="&lt;b&gt;Redis&lt;/b&gt;&lt;br&gt;(eventually)" style="rounded=1;whiteSpace=wrap;html=1;" parent="1" vertex="1">
          <mxGeometry x="190" y="260" width="120" height="60" as="geometry" />
        </mxCell>
        <mxCell id="NaJi3UD-vS3J3Lx25AtY-1" value="Central &lt;br&gt;WebSocket&lt;br&gt;endpoint" style="rounded=1;whiteSpace=wrap;html=1;" vertex="1" parent="1">
          <mxGeometry x="290" y="500" width="120" height="60" as="geometry" />
        </mxCell>
        <mxCell id="NaJi3UD-vS3J3Lx25AtY-4" value="Central &lt;br&gt;WebSocket&lt;br&gt;endpoint" style="rounded=1;whiteSpace=wrap;html=1;" vertex="1" parent="1">
          <mxGeometry x="460" y="500" width="120" height="60" as="geometry" />
        </mxCell>
      </root>
    </mxGraphModel>
  </diagram>
</mxfile>
